<svg width="41" height="41" viewBox="0 0 41 41" fill="none" xmlns="http://www.w3.org/2000/svg">
<path d="M14.4197 34.2361C15.8215 36.018 18.0236 37.1663 20.5 37.1663C22.9764 37.1663 25.1785 36.018 26.5804 34.2361C22.5441 34.783 18.456 34.783 14.4197 34.2361Z" fill="#997E7E"/>
<path fill-rule="evenodd" clip-rule="evenodd" d="M31.7485 16.6732V15.4997C31.7485 9.05635 26.7124 3.83301 20.5 3.83301C14.2876 3.83301 9.25145 9.05635 9.25145 15.4997V16.6732C9.25145 18.0815 8.84953 19.4583 8.09633 20.6301L6.2506 23.5016C4.56471 26.1244 5.85174 29.6895 8.78394 30.5189C16.4546 32.6887 24.5454 32.6887 32.2161 30.5189C35.1483 29.6895 36.4353 26.1244 34.7494 23.5016L32.9037 20.6301C32.1505 19.4583 31.7485 18.0815 31.7485 16.6732ZM20.5 9.24967C21.1904 9.24967 21.75 9.80932 21.75 10.4997V17.1663C21.75 17.8567 21.1904 18.4163 20.5 18.4163C19.8096 18.4163 19.25 17.8567 19.25 17.1663V10.4997C19.25 9.80932 19.8096 9.24967 20.5 9.24967Z" fill="#997E7E"/>
</svg>
