<svg width="16" height="16" viewBox="0 0 16 16" fill="none" xmlns="http://www.w3.org/2000/svg">
<path d="M6.50004 8.00033C6.50004 7.1719 7.17161 6.50033 8.00004 6.50033C8.82847 6.50033 9.50004 7.1719 9.50004 8.00033C9.50004 8.82875 8.82847 9.50033 8.00004 9.50033C7.17161 9.50033 6.50004 8.82875 6.50004 8.00033Z" fill="#F2F2F3"/>
<path fill-rule="evenodd" clip-rule="evenodd" d="M1.33337 8.00033C1.33337 9.09324 1.61668 9.46131 2.1833 10.1974C3.31468 11.6673 5.21212 13.3337 8.00004 13.3337C10.788 13.3337 12.6854 11.6673 13.8168 10.1974C14.3834 9.46131 14.6667 9.09324 14.6667 8.00033C14.6667 6.90741 14.3834 6.53934 13.8168 5.80321C12.6854 4.33336 10.788 2.66699 8.00004 2.66699C5.21212 2.66699 3.31468 4.33336 2.1833 5.80321C1.61668 6.53934 1.33337 6.90741 1.33337 8.00033ZM8.00004 5.50033C6.61933 5.50033 5.50004 6.61961 5.50004 8.00033C5.50004 9.38104 6.61933 10.5003 8.00004 10.5003C9.38075 10.5003 10.5 9.38104 10.5 8.00033C10.5 6.61961 9.38075 5.50033 8.00004 5.50033Z" fill="#F2F2F3"/>
</svg>
