<svg width="15" height="14" viewBox="0 0 15 14" fill="none" xmlns="http://www.w3.org/2000/svg">
<g clip-path="url(#clip0_192_29242)">
<path fill-rule="evenodd" clip-rule="evenodd" d="M14.5 7C14.5 10.866 11.366 14 7.5 14C3.63401 14 0.5 10.866 0.5 7C0.5 3.13401 3.63401 0 7.5 0C11.366 0 14.5 3.13401 14.5 7ZM10.3212 4.87877C10.5263 5.08379 10.5263 5.41621 10.3212 5.62123L6.82123 9.12123C6.61621 9.32626 6.28379 9.32626 6.07877 9.12123L4.67877 7.72123C4.47374 7.51621 4.47374 7.18379 4.67877 6.97877C4.88379 6.77374 5.21621 6.77374 5.42123 6.97877L6.45 8.00754L8.01438 6.44315L9.57877 4.87877C9.78379 4.67374 10.1162 4.67374 10.3212 4.87877Z" fill="#1FAD47"/>
</g>
<defs>
<clipPath id="clip0_192_29242">
<rect width="14" height="14" fill="white" transform="translate(0.5)"/>
</clipPath>
</defs>
</svg>
