<svg width="24" height="24" viewBox="0 0 24 24" fill="none" xmlns="http://www.w3.org/2000/svg">
<path d="M18.5116 9.87236C18.5116 10.5911 17.8869 11.1737 17.1163 11.1737C16.3457 11.1737 15.7209 10.5911 15.7209 9.87236C15.7209 9.15365 16.3457 8.57102 17.1163 8.57102C17.8869 8.57102 18.5116 9.15365 18.5116 9.87236Z" fill="#808080"/>
<path fill-rule="evenodd" clip-rule="evenodd" d="M18.0363 5.45052C16.9766 5.31764 15.6225 5.31765 13.9129 5.31767H10.0871C8.37751 5.31765 7.02343 5.31764 5.9637 5.45052C4.87308 5.58727 3.99033 5.8754 3.29418 6.52466C2.59803 7.17391 2.28908 7.99718 2.14245 9.01433C1.99997 10.0027 1.99999 11.2655 2 12.8599V12.9578C1.99999 14.5521 1.99997 15.815 2.14245 16.8033C2.28908 17.8205 2.59803 18.6438 3.29418 19.293C3.99033 19.9423 4.87307 20.2304 5.9637 20.3671C7.02344 20.5 8.37751 20.5 10.0871 20.5H13.9129C15.6225 20.5 16.9766 20.5 18.0363 20.3671C19.1269 20.2304 20.0097 19.9423 20.7058 19.293C21.402 18.6438 21.7109 17.8205 21.8575 16.8033C22 15.815 22 14.5521 22 12.9578V12.8599C22 11.2655 22 10.0027 21.8575 9.01433C21.7109 7.99718 21.402 7.17391 20.7058 6.52466C20.0097 5.8754 19.1269 5.58727 18.0363 5.45052ZM6.14963 6.74026C5.21373 6.85761 4.67452 7.07768 4.28084 7.44484C3.88716 7.812 3.65119 8.31488 3.52536 9.18773C3.42443 9.88783 3.40184 10.7629 3.3968 11.9074L3.86764 11.5232C4.99175 10.6059 6.68596 10.6585 7.74215 11.6435L11.7326 15.3651C12.1321 15.7377 12.7611 15.7886 13.2234 15.4855L13.5008 15.3037C14.8313 14.4317 16.6314 14.5327 17.8402 15.5473L20.2479 17.5682C20.3463 17.3113 20.4206 17.0047 20.4746 16.6299C20.6032 15.7384 20.6047 14.5631 20.6047 12.9088C20.6047 11.2545 20.6032 10.0793 20.4746 9.18773C20.3488 8.31488 20.1128 7.812 19.7192 7.44484C19.3255 7.07768 18.7863 6.85761 17.8504 6.74026C16.8944 6.62039 15.6343 6.61901 13.8605 6.61901H10.1395C8.36575 6.61901 7.10559 6.62039 6.14963 6.74026Z" fill="#808080"/>
<path d="M17.0863 2.6074C16.2265 2.49997 15.1318 2.49998 13.7672 2.5H10.6775C9.31284 2.49998 8.21815 2.49997 7.35834 2.6074C6.46796 2.71866 5.72561 2.9557 5.13682 3.5029C4.79725 3.81849 4.56856 4.18163 4.41279 4.59121C4.91699 4.36743 5.48704 4.23555 6.12705 4.15488C7.21143 4.01821 8.597 4.01822 10.3463 4.01823H14.2612C16.0105 4.01822 17.396 4.01821 18.4804 4.15488C19.0394 4.22534 19.545 4.33486 20 4.51056C19.8454 4.13381 19.625 3.79762 19.3078 3.5029C18.719 2.9557 17.9767 2.71866 17.0863 2.6074Z" fill="#808080"/>
</svg>
