<svg width="15" height="14" viewBox="0 0 15 14" fill="none" xmlns="http://www.w3.org/2000/svg">
<path d="M6.38009 4.60698C7.00814 3.48032 7.32216 2.91699 7.79165 2.91699C8.26113 2.91699 8.57516 3.48032 9.2032 4.60698L9.36569 4.89846C9.54416 5.21862 9.63339 5.3787 9.77253 5.48432C9.91166 5.58994 10.0849 5.62915 10.4315 5.70757L10.747 5.77896C11.9666 6.0549 12.5764 6.19287 12.7215 6.65941C12.8666 7.12594 12.4509 7.61207 11.6194 8.58433L11.4043 8.83586C11.1681 9.11215 11.0499 9.25029 10.9968 9.42119C10.9436 9.59209 10.9615 9.77641 10.9972 10.145L11.0297 10.4806C11.1554 11.7778 11.2183 12.4264 10.8385 12.7148C10.4586 13.0031 9.88769 12.7402 8.74579 12.2144L8.45037 12.0784C8.12587 11.929 7.96363 11.8543 7.79165 11.8543C7.61966 11.8543 7.45742 11.929 7.13293 12.0784L6.8375 12.2144C5.6956 12.7402 5.12465 13.0031 4.74482 12.7148C4.365 12.4264 4.42785 11.7778 4.55356 10.4806L4.58608 10.145C4.6218 9.77641 4.63966 9.59209 4.58651 9.42119C4.53337 9.25029 4.41523 9.11215 4.17896 8.83586L3.96386 8.58433C3.13242 7.61207 2.71671 7.12594 2.86178 6.65941C3.00686 6.19287 3.61666 6.0549 4.83625 5.77896L5.15177 5.70757C5.49834 5.62915 5.67163 5.58994 5.81076 5.48432C5.9499 5.3787 6.03914 5.21862 6.21761 4.89846L6.38009 4.60698Z" fill="#F2F2F3"/>
<path d="M3.33925 1.45859C3.35674 1.39688 3.46627 1.39651 3.48418 1.4581C3.56597 1.73933 3.71762 2.15502 3.94694 2.3828C4.17626 2.61058 4.59297 2.75942 4.87475 2.83931C4.93646 2.8568 4.93682 2.96633 4.87524 2.98424C4.59401 3.06603 4.17831 3.21768 3.95053 3.447C3.72275 3.67632 3.57392 4.09303 3.49403 4.37481C3.47654 4.43652 3.36701 4.43689 3.3491 4.3753C3.26731 4.09407 3.11566 3.67837 2.88634 3.45059C2.65701 3.22282 2.24031 3.07398 1.95853 2.99409C1.89682 2.9766 1.89645 2.86707 1.95804 2.84916C2.23927 2.76737 2.65496 2.61572 2.88274 2.3864C3.11052 2.15708 3.25936 1.74037 3.33925 1.45859Z" fill="#F2F2F3"/>
<path fill-rule="evenodd" clip-rule="evenodd" d="M11.5833 1.89551C11.825 1.89551 12.0208 2.09138 12.0208 2.33301V2.47884H12.1667C12.4083 2.47884 12.6042 2.67472 12.6042 2.91634C12.6042 3.15797 12.4083 3.35384 12.1667 3.35384H12.0208V3.49967C12.0208 3.7413 11.825 3.93717 11.5833 3.93717C11.3417 3.93717 11.1458 3.7413 11.1458 3.49967V3.35384H11C10.7584 3.35384 10.5625 3.15797 10.5625 2.91634C10.5625 2.67472 10.7584 2.47884 11 2.47884H11.1458V2.33301C11.1458 2.09138 11.3417 1.89551 11.5833 1.89551Z" fill="#F2F2F3"/>
</svg>
