<svg width="20" height="20" viewBox="0 0 20 20" fill="none" xmlns="http://www.w3.org/2000/svg">
<path fill-rule="evenodd" clip-rule="evenodd" d="M11.899 1.79352C11.5904 1.66666 11.1991 1.66666 10.4167 1.66666C9.63418 1.66666 9.24294 1.66666 8.93433 1.79352C8.52284 1.96268 8.19591 2.28714 8.02546 2.69552C7.94766 2.88194 7.91721 3.09874 7.90529 3.41498C7.88778 3.87972 7.64763 4.3099 7.2418 4.54243C6.83598 4.77496 6.34053 4.76627 5.92624 4.54896C5.64432 4.40107 5.43991 4.31884 5.23832 4.2925C4.79674 4.23481 4.35015 4.35357 3.9968 4.62266C3.73178 4.82447 3.53616 5.16074 3.14492 5.83327C2.75368 6.5058 2.55806 6.84206 2.51446 7.17074C2.45632 7.60899 2.57598 8.05221 2.84712 8.40289C2.97088 8.56295 3.14481 8.69751 3.41475 8.86584C3.8116 9.11331 4.06693 9.53487 4.06691 10C4.06688 10.4651 3.81155 10.8866 3.41475 11.134C3.14476 11.3024 2.97081 11.437 2.84704 11.597C2.5759 11.9477 2.45624 12.3909 2.51437 12.8292C2.55798 13.1579 2.7536 13.4941 3.14484 14.1667C3.53608 14.8392 3.7317 15.1755 3.99671 15.3773C4.35007 15.6464 4.79666 15.7651 5.23824 15.7074C5.43981 15.6811 5.64421 15.5989 5.92611 15.451C6.34043 15.2337 6.83592 15.225 7.24177 15.4575C7.64762 15.6901 7.88778 16.1203 7.90529 16.585C7.91721 16.9013 7.94766 17.118 8.02546 17.3045C8.19591 17.7128 8.52284 18.0373 8.93433 18.2065C9.24294 18.3333 9.63418 18.3333 10.4167 18.3333C11.1991 18.3333 11.5904 18.3333 11.899 18.2065C12.3105 18.0373 12.6374 17.7128 12.8079 17.3045C12.8857 17.118 12.9161 16.9012 12.928 16.585C12.9456 16.1202 13.1857 15.6901 13.5915 15.4575C13.9973 15.2249 14.4928 15.2336 14.9072 15.451C15.1891 15.5988 15.3934 15.681 15.595 15.7074C16.0366 15.7651 16.4832 15.6463 16.8365 15.3772C17.1016 15.1754 17.2972 14.8391 17.6884 14.1666C18.0797 13.4941 18.2753 13.1578 18.3189 12.8291C18.377 12.3909 18.2573 11.9477 17.9862 11.597C17.8624 11.4369 17.6885 11.3023 17.4185 11.134C17.0217 10.8865 16.7664 10.465 16.7664 9.99992C16.7664 9.53486 17.0218 9.11339 17.4185 8.86598C17.6885 8.69761 17.8625 8.56304 17.9863 8.40295C18.2574 8.05226 18.3771 7.60905 18.319 7.1708C18.2754 6.84212 18.0797 6.50585 17.6885 5.83332C17.2973 5.16079 17.1016 4.82453 16.8366 4.62271C16.4833 4.35362 16.0367 4.23486 15.5951 4.29256C15.3935 4.3189 15.1891 4.40112 14.9072 4.54899C14.4929 4.76632 13.9974 4.77501 13.5916 4.54246C13.1857 4.30991 12.9456 3.87971 12.928 3.41494C12.9161 3.09872 12.8857 2.88193 12.8079 2.69552C12.6374 2.28714 12.3105 1.96268 11.899 1.79352ZM10.4167 12.5C11.8079 12.5 12.9357 11.3807 12.9357 9.99999C12.9357 8.61928 11.8079 7.49999 10.4167 7.49999C9.02544 7.49999 7.89763 8.61928 7.89763 9.99999C7.89763 11.3807 9.02544 12.5 10.4167 12.5Z" fill="#808080"/>
</svg>
