<svg width="20" height="20" viewBox="0 0 20 20" fill="none" xmlns="http://www.w3.org/2000/svg">
<path d="M12.9165 6.25001C12.9165 7.86084 11.6107 9.16668 9.99984 9.16668C8.38901 9.16668 7.08317 7.86084 7.08317 6.25001C7.08317 4.63918 8.38901 3.33334 9.99984 3.33334C11.6107 3.33334 12.9165 4.63918 12.9165 6.25001Z" fill="#F2F2F3"/>
<path d="M14.9998 13.75C14.9998 15.3608 12.7613 16.6667 9.99984 16.6667C7.23841 16.6667 4.99984 15.3608 4.99984 13.75C4.99984 12.1392 7.23841 10.8333 9.99984 10.8333C12.7613 10.8333 14.9998 12.1392 14.9998 13.75Z" fill="#F2F2F3"/>
<path d="M5.93488 4.16668C6.08276 4.16668 6.22714 4.18119 6.36655 4.20881C6.02692 4.81206 5.83317 5.50841 5.83317 6.25001C5.83317 6.97355 6.01759 7.65403 6.342 8.24698C6.21021 8.27153 6.0741 8.2844 5.93488 8.2844C4.7562 8.2844 3.80069 7.36261 3.80069 6.22554C3.80069 5.08846 4.7562 4.16668 5.93488 4.16668Z" fill="#F2F2F3"/>
<path d="M4.53928 15.8216C4.06602 15.2559 3.74984 14.5617 3.74984 13.75C3.74984 12.9631 4.04698 12.2867 4.49632 11.7306C2.90909 11.8537 1.6665 12.7218 1.6665 13.7745C1.6665 14.837 2.93092 15.7115 4.53928 15.8216Z" fill="#F2F2F3"/>
<path d="M14.1664 6.25001C14.1664 6.97356 13.982 7.65403 13.6576 8.24698C13.7894 8.27154 13.9255 8.2844 14.0647 8.2844C15.2434 8.2844 16.1989 7.36261 16.1989 6.22554C16.1989 5.08846 15.2434 4.16668 14.0647 4.16668C13.9168 4.16668 13.7725 4.18119 13.6331 4.20881C13.9727 4.81206 14.1664 5.50841 14.1664 6.25001Z" fill="#F2F2F3"/>
<path d="M15.4603 15.8216C17.0687 15.7115 18.3331 14.837 18.3331 13.7745C18.3331 12.7218 17.0905 11.8537 15.5033 11.7306C15.9526 12.2867 16.2498 12.9631 16.2498 13.75C16.2498 14.5617 15.9336 15.2559 15.4603 15.8216Z" fill="#F2F2F3"/>
</svg>
