<svg width="32" height="32" viewBox="0 0 32 32" fill="none" xmlns="http://www.w3.org/2000/svg">
<path fill-rule="evenodd" clip-rule="evenodd" d="M2.66669 15.9998C2.66669 9.71444 2.66669 6.57175 4.61931 4.61913C6.57193 2.6665 9.71463 2.6665 16 2.6665C22.2854 2.6665 25.4281 2.6665 27.3807 4.61913C29.3334 6.57175 29.3334 9.71444 29.3334 15.9998C29.3334 22.2852 29.3334 25.4279 27.3807 27.3806C25.4281 29.3332 22.2854 29.3332 16 29.3332C9.71463 29.3332 6.57193 29.3332 4.61931 27.3806C2.66669 25.4279 2.66669 22.2852 2.66669 15.9998ZM16.6667 9.33317C16.6667 8.78089 17.1144 8.33317 17.6667 8.33317H22.6667C23.219 8.33317 23.6667 8.78089 23.6667 9.33317V14.3332C23.6667 14.8855 23.219 15.3332 22.6667 15.3332C22.1144 15.3332 21.6667 14.8855 21.6667 14.3332V11.7474L11.7476 21.6665H14.3334C14.8856 21.6665 15.3334 22.1142 15.3334 22.6665C15.3334 23.2188 14.8856 23.6665 14.3334 23.6665H9.33335C8.78107 23.6665 8.33335 23.2188 8.33335 22.6665V17.6665C8.33335 17.1142 8.78107 16.6665 9.33335 16.6665C9.88564 16.6665 10.3334 17.1142 10.3334 17.6665V20.2523L20.2525 10.3332H17.6667C17.1144 10.3332 16.6667 9.88546 16.6667 9.33317Z" fill="#997E7E"/>
</svg>
