<svg width="20" height="20" viewBox="0 0 20 20" fill="none" xmlns="http://www.w3.org/2000/svg">
<path fill-rule="evenodd" clip-rule="evenodd" d="M8.33329 3.33301H11.6666C14.8093 3.33301 16.3807 3.33301 17.357 4.30932C18.3333 5.28563 18.3333 6.85698 18.3333 9.99967C18.3333 13.1424 18.3333 14.7137 17.357 15.69C16.3807 16.6663 14.8093 16.6663 11.6666 16.6663H8.33329C5.1906 16.6663 3.61925 16.6663 2.64294 15.69C1.66663 14.7137 1.66663 13.1424 1.66663 9.99967C1.66663 6.85698 1.66663 5.28563 2.64294 4.30932C3.61925 3.33301 5.1906 3.33301 8.33329 3.33301ZM11.0416 7.49967C11.0416 7.1545 11.3214 6.87467 11.6666 6.87467H15.8333C16.1785 6.87467 16.4583 7.1545 16.4583 7.49967C16.4583 7.84485 16.1785 8.12467 15.8333 8.12467H11.6666C11.3214 8.12467 11.0416 7.84485 11.0416 7.49967ZM11.875 9.99967C11.875 9.6545 12.1548 9.37467 12.5 9.37467H15.8333C16.1785 9.37467 16.4583 9.6545 16.4583 9.99967C16.4583 10.3449 16.1785 10.6247 15.8333 10.6247H12.5C12.1548 10.6247 11.875 10.3449 11.875 9.99967ZM12.7083 12.4997C12.7083 12.1545 12.9881 11.8747 13.3333 11.8747H15.8333C16.1785 11.8747 16.4583 12.1545 16.4583 12.4997C16.4583 12.8449 16.1785 13.1247 15.8333 13.1247H13.3333C12.9881 13.1247 12.7083 12.8449 12.7083 12.4997ZM9.16663 7.49967C9.16663 8.42015 8.42043 9.16634 7.49996 9.16634C6.57948 9.16634 5.83329 8.42015 5.83329 7.49967C5.83329 6.5792 6.57948 5.83301 7.49996 5.83301C8.42043 5.83301 9.16663 6.5792 9.16663 7.49967ZM7.49996 14.1663C10.8333 14.1663 10.8333 13.4201 10.8333 12.4997C10.8333 11.5792 9.34091 10.833 7.49996 10.833C5.65901 10.833 4.16663 11.5792 4.16663 12.4997C4.16663 13.4201 4.16663 14.1663 7.49996 14.1663Z" fill="#F2F2F3"/>
</svg>
