<svg width="20" height="20" viewBox="0 0 20 20" fill="none" xmlns="http://www.w3.org/2000/svg">
<path fill-rule="evenodd" clip-rule="evenodd" d="M11.6667 18.3337H8.33334C5.19064 18.3337 3.61929 18.3337 2.64298 17.3573C1.66667 16.381 1.66667 14.8097 1.66667 11.667V8.33366C1.66667 5.19096 1.66667 3.61961 2.64298 2.6433C3.61929 1.66699 5.19892 1.66699 8.35817 1.66699C8.86317 1.66699 9.26784 1.66699 9.60835 1.68088C9.59714 1.74749 9.59126 1.81543 9.59103 1.88413L9.58333 4.24613C9.58326 5.16039 9.5832 5.96836 9.67076 6.61962C9.76567 7.32556 9.98359 8.03138 10.5597 8.60744C11.1357 9.1835 11.8415 9.40142 12.5475 9.49633C13.1987 9.58389 14.0067 9.58382 14.921 9.58375L15 9.58375H18.2978C18.3333 10.029 18.3333 10.5754 18.3333 11.3027V11.667C18.3333 14.8097 18.3333 16.381 17.357 17.3573C16.3807 18.3337 14.8094 18.3337 11.6667 18.3337ZM4.37501 12.0837C4.37501 11.7385 4.65483 11.4587 5.00001 11.4587H11.6667C12.0119 11.4587 12.2917 11.7385 12.2917 12.0837C12.2917 12.4288 12.0119 12.7087 11.6667 12.7087H5.00001C4.65483 12.7087 4.37501 12.4288 4.37501 12.0837ZM4.37501 15.0003C4.37501 14.6551 4.65483 14.3753 5.00001 14.3753H9.58334C9.92852 14.3753 10.2083 14.6551 10.2083 15.0003C10.2083 15.3455 9.92852 15.6253 9.58334 15.6253H5.00001C4.65483 15.6253 4.37501 15.3455 4.37501 15.0003Z" fill="#F2F2F3"/>
<path d="M16.1264 6.34754L12.8275 3.37845C11.8876 2.53256 11.4176 2.10961 10.841 1.88835L10.8333 4.16708C10.8333 6.13127 10.8333 7.11336 11.4435 7.72355C12.0537 8.33375 13.0358 8.33375 15 8.33375H17.9834C17.6813 7.7469 17.1403 7.26003 16.1264 6.34754Z" fill="#F2F2F3"/>
</svg>
