<svg width="20" height="20" viewBox="0 0 20 20" fill="none" xmlns="http://www.w3.org/2000/svg">
<path fill-rule="evenodd" clip-rule="evenodd" d="M10.043 1.66699H9.95701C8.55682 1.66698 7.44776 1.66697 6.57979 1.7857C5.68651 1.90789 4.9635 2.16535 4.39332 2.74548C3.82314 3.3256 3.5701 4.06122 3.45 4.97008C3.33331 5.85319 3.33332 6.98158 3.33333 8.4062V11.5944C3.33332 13.0191 3.33331 14.1475 3.45 15.0306C3.5701 15.9394 3.82314 16.6751 4.39332 17.2552C4.9635 17.8353 5.68651 18.0928 6.57979 18.215C7.44775 18.3337 8.5568 18.3337 9.95698 18.3337H10.043C11.4432 18.3337 12.5522 18.3337 13.4202 18.215C14.3135 18.0928 15.0365 17.8353 15.6067 17.2552C16.1768 16.6751 16.4299 15.9394 16.55 15.0306C16.6667 14.1475 16.6667 13.0191 16.6667 11.5945V8.40621C16.6667 6.98161 16.6667 5.85318 16.55 4.97008C16.4299 4.06122 16.1768 3.3256 15.6067 2.74548C15.0365 2.16535 14.3135 1.90789 13.4202 1.7857C12.5522 1.66697 11.4432 1.66698 10.043 1.66699ZM7.14285 15.4267C7.14285 15.1056 7.39869 14.8453 7.71428 14.8453H12.2857C12.6013 14.8453 12.8571 15.1056 12.8571 15.4267C12.8571 15.7478 12.6013 16.0081 12.2857 16.0081H7.71428C7.39869 16.0081 7.14285 15.7478 7.14285 15.4267Z" fill="#F2F2F3"/>
</svg>
