<svg width="40" height="40" viewBox="0 0 40 40" fill="none" xmlns="http://www.w3.org/2000/svg">
<path d="M20.1038 36.6668H19.8962C18.6311 36.6668 17.9986 36.6668 17.4485 36.4179C16.8985 36.169 16.5033 35.7039 15.713 34.7737L11.7439 30.1021C10.9689 29.1899 10.5814 28.7338 10.38 28.1933C10.1787 27.6529 10.1787 27.0688 10.1787 25.9006V17.1286C10.1787 15.9872 10.1787 15.4164 9.93365 14.9148C9.6886 14.4131 9.22839 14.0417 8.30797 13.2988L7.9624 13.0199C5.99244 11.43 5.00746 10.635 5.00005 9.4843C4.99264 8.33357 5.86626 7.61099 7.61351 6.16584C7.878 5.94707 8.14002 5.74245 8.39301 5.56095C9.34752 4.87618 10.7304 4.12115 11.7035 3.61733C12.4242 3.24423 13.2911 3.24313 14.0267 3.58944L14.4667 3.79657C14.5822 3.85095 14.6806 3.93276 14.7522 4.03393C17.2487 7.55992 22.7513 7.55992 25.2478 4.03393C25.3194 3.93276 25.4178 3.85095 25.5333 3.79657L25.9733 3.58944C26.7089 3.24313 27.5758 3.24423 28.2965 3.61733C29.2696 4.12115 30.6525 4.87618 31.607 5.56095C31.86 5.74245 32.122 5.94707 32.3865 6.16584C34.1337 7.61099 35.0074 8.33357 35 9.4843C34.9925 10.635 34.0076 11.43 32.0376 13.0199L31.692 13.2988C30.7716 14.0417 30.3114 14.4131 30.0664 14.9148C29.8213 15.4164 29.8213 15.9872 29.8213 17.1286V25.9006C29.8213 27.0688 29.8213 27.6529 29.62 28.1933C29.4187 28.7338 29.0311 29.1899 28.2561 30.1021L24.287 34.7737C23.4967 35.7039 23.1015 36.169 22.5515 36.4179C22.0014 36.6668 21.3689 36.6668 20.1038 36.6668Z" fill="#997E7E"/>
</svg>
