<svg width="32" height="32" viewBox="0 0 32 32" fill="none" xmlns="http://www.w3.org/2000/svg">
<path fill-rule="evenodd" clip-rule="evenodd" d="M4.61925 4.61913C2.66663 6.57175 2.66663 9.71444 2.66663 15.9998C2.66663 22.2852 2.66663 25.4279 4.61925 27.3806C6.57187 29.3332 9.71457 29.3332 16 29.3332C22.2854 29.3332 25.4281 29.3332 27.3807 27.3806C29.3333 25.4279 29.3333 22.2852 29.3333 15.9998C29.3333 9.71444 29.3333 6.57175 27.3807 4.61913C25.4281 2.6665 22.2854 2.6665 16 2.6665C9.71457 2.6665 6.57187 2.6665 4.61925 4.61913ZM7.28073 14.7776C7.77774 10.3997 11.4987 6.99984 16.0127 6.99984C18.6554 6.99984 21.0268 8.16611 22.6366 10.0085C23 10.4245 22.9574 11.0562 22.5415 11.4196C22.1256 11.7829 21.4939 11.7404 21.1305 11.3245C19.8847 9.89863 18.0546 8.99984 16.0127 8.99984C12.6028 8.99984 9.78185 11.5094 9.29772 14.7776H9.78202C10.1866 14.7776 10.5513 15.0214 10.706 15.3952C10.8607 15.7691 10.7749 16.1993 10.4886 16.4852L8.93096 18.0408C8.54055 18.4306 7.90813 18.4306 7.51771 18.0408L5.96003 16.4852C5.67375 16.1993 5.58794 15.7691 5.74265 15.3952C5.89735 15.0214 6.26207 14.7776 6.66666 14.7776H7.28073ZM23.0691 13.9589C23.4595 13.569 24.0919 13.569 24.4823 13.9589L26.04 15.5145C26.3263 15.8004 26.4121 16.2306 26.2574 16.6044C26.1027 16.9783 25.738 17.2221 25.3334 17.2221H24.7193C24.2223 21.6 20.5013 24.9998 15.9873 24.9998C13.3446 24.9998 10.9732 23.8336 9.36347 21.9911C9.00009 21.5752 9.04267 20.9435 9.45857 20.5801C9.87447 20.2167 10.5062 20.2593 10.8696 20.6752C12.1153 22.101 13.9455 22.9998 15.9873 22.9998C19.3972 22.9998 22.2182 20.4903 22.7023 17.2221H22.218C21.8134 17.2221 21.4487 16.9783 21.294 16.6044C21.1393 16.2306 21.2251 15.8004 21.5114 15.5145L23.0691 13.9589Z" fill="#997E7E"/>
</svg>
