<svg width="32" height="32" viewBox="0 0 32 32" fill="none" xmlns="http://www.w3.org/2000/svg">
<path d="M6.6384 12.9136C3.99055 11.8545 2.66663 11.3249 2.66663 10.6668C2.66663 10.0088 3.99055 9.47919 6.6384 8.42005L10.383 6.92221C13.0309 5.86307 14.3548 5.3335 16 5.3335C17.6451 5.3335 18.969 5.86307 21.6169 6.92221L25.3615 8.42005C28.0094 9.47919 29.3333 10.0088 29.3333 10.6668C29.3333 11.3249 28.0094 11.8545 25.3615 12.9136L21.6169 14.4115C18.969 15.4706 17.6451 16.0002 16 16.0002C14.3548 16.0002 13.0309 15.4706 10.383 14.4115L6.6384 12.9136Z" fill="#F2F2F3"/>
<path fill-rule="evenodd" clip-rule="evenodd" d="M2.66663 10.6668C2.66663 11.3249 3.99055 11.8545 6.6384 12.9136L10.383 14.4115C13.0309 15.4706 14.3548 16.0002 16 16.0002C17.6451 16.0002 18.969 15.4706 21.6169 14.4115L25.3615 12.9136C28.0094 11.8545 29.3333 11.3249 29.3333 10.6668C29.3333 10.0088 28.0094 9.47919 25.3615 8.42005L21.6169 6.92221C18.969 5.86307 17.6451 5.3335 16 5.3335C14.3548 5.3335 13.0309 5.86307 10.383 6.92221L6.6384 8.42005C3.99055 9.47919 2.66663 10.0088 2.66663 10.6668Z" fill="#997E7E"/>
<path d="M25.3615 18.2469L21.6169 19.7448C18.969 20.8039 17.6451 21.3335 16 21.3335C14.3548 21.3335 13.0309 20.8039 10.383 19.7448L6.6384 18.2469C3.99055 17.1878 2.66663 16.6582 2.66663 16.0002C2.66663 15.407 3.74237 14.9182 5.89387 14.0518L10.0819 15.7271C12.5467 16.7135 14.0959 17.3335 16 17.3335C17.904 17.3335 19.4532 16.7135 21.9181 15.7271L26.1061 14.0518C28.2575 14.9182 29.3333 15.407 29.3333 16.0002C29.3333 16.6582 28.0094 17.1878 25.3615 18.2469Z" fill="#997E7E"/>
<path d="M25.3615 23.58L21.6169 25.0779C18.969 26.137 17.6451 26.6666 16 26.6666C14.3548 26.6666 13.0309 26.137 10.383 25.0779L6.6384 23.58C3.99055 22.5209 2.66663 21.9913 2.66663 21.3333C2.66663 20.7401 3.74237 20.2513 5.89387 19.3849L10.0819 21.0602C12.5467 22.0466 14.0959 22.6666 16 22.6666C17.904 22.6666 19.4532 22.0466 21.9181 21.0602L26.1061 19.3849C28.2575 20.2513 29.3333 20.7401 29.3333 21.3333C29.3333 21.9913 28.0094 22.5209 25.3615 23.58Z" fill="#997E7E"/>
</svg>
