<svg width="18" height="18" viewBox="0 0 18 18" fill="none" xmlns="http://www.w3.org/2000/svg">
    <path fill-rule="evenodd" clip-rule="evenodd" d="M16.5 9C16.5 4.85786 13.1421 1.5 9 1.5C4.85786 1.5 1.5 4.85786 1.5 9C1.5 13.1421 4.85786 16.5 9 16.5C13.1421 16.5 16.5 13.1421 16.5 9ZM9 4.6875C9.31066 4.6875 9.5625 4.93934 9.5625 5.25V9.75C9.5625 10.0607 9.31066 10.3125 9 10.3125C8.68934 10.3125 8.4375 10.0607 8.4375 9.75V5.25C8.4375 4.93934 8.68934 4.6875 9 4.6875ZM9 12.75C9.41421 12.75 9.75 12.4142 9.75 12C9.75 11.5858 9.41421 11.25 9 11.25C8.58579 11.25 8.25 11.5858 8.25 12C8.25 12.4142 8.58579 12.75 9 12.75Z" fill="#F2F2F3"/>
</svg>
