<svg width="15" height="14" viewBox="0 0 15 14" fill="none" xmlns="http://www.w3.org/2000/svg">
<path fill-rule="evenodd" clip-rule="evenodd" d="M13.3334 7.00033C13.3334 10.222 10.7217 12.8337 7.50002 12.8337C6.56687 12.8337 5.6849 12.6145 4.90275 12.225C4.69489 12.1214 4.45731 12.087 4.233 12.147L2.93447 12.4944C2.37078 12.6453 1.85508 12.1296 2.0059 11.5659L2.35334 10.2674C2.41336 10.043 2.3789 9.80545 2.27537 9.5976C1.8858 8.81545 1.66669 7.93347 1.66669 7.00033C1.66669 3.77866 4.27836 1.16699 7.50002 1.16699C10.7217 1.16699 13.3334 3.77866 13.3334 7.00033ZM7.50002 4.22949C7.74164 4.22949 7.93752 4.42537 7.93752 4.66699V9.33366C7.93752 9.57528 7.74164 9.77116 7.50002 9.77116C7.2584 9.77116 7.06252 9.57528 7.06252 9.33366V4.66699C7.06252 4.42537 7.2584 4.22949 7.50002 4.22949ZM5.60419 5.83366C5.60419 5.59203 5.40831 5.39616 5.16669 5.39616C4.92506 5.39616 4.72919 5.59203 4.72919 5.83366V8.16699C4.72919 8.40862 4.92506 8.60449 5.16669 8.60449C5.40831 8.60449 5.60419 8.40862 5.60419 8.16699V5.83366ZM9.83335 5.39616C10.075 5.39616 10.2709 5.59203 10.2709 5.83366V8.16699C10.2709 8.40862 10.075 8.60449 9.83335 8.60449C9.59173 8.60449 9.39585 8.40862 9.39585 8.16699V5.83366C9.39585 5.59203 9.59173 5.39616 9.83335 5.39616Z" fill="#FFD426"/>
</svg>
