<svg width="16" height="16" viewBox="0 0 16 16" fill="none" xmlns="http://www.w3.org/2000/svg">
<path d="M10.3333 5.00033C10.3333 6.28899 9.28866 7.33366 8 7.33366C6.71133 7.33366 5.66666 6.28899 5.66666 5.00033C5.66666 3.71166 6.71133 2.66699 8 2.66699C9.28866 2.66699 10.3333 3.71166 10.3333 5.00033Z" fill="#F2F2F3"/>
<path d="M12 11.0003C12 12.289 10.2091 13.3337 8 13.3337C5.79086 13.3337 3.99999 12.289 3.99999 11.0003C3.99999 9.71166 5.79086 8.66699 8 8.66699C10.2091 8.66699 12 9.71166 12 11.0003Z" fill="#F2F2F3"/>
<path d="M4.74803 3.33366C4.86634 3.33366 4.98183 3.34527 5.09336 3.36737C4.82166 3.84996 4.66666 4.40704 4.66666 5.00033C4.66666 5.57916 4.8142 6.12354 5.07372 6.5979C4.96829 6.61754 4.85941 6.62783 4.74803 6.62783C3.80508 6.62783 3.04068 5.89041 3.04068 4.98075C3.04068 4.07109 3.80508 3.33366 4.74803 3.33366Z" fill="#F2F2F3"/>
<path d="M3.63155 12.6576C3.25294 12.205 2.99999 11.6497 2.99999 11.0003C2.99999 10.3708 3.23771 9.82965 3.59718 9.38481C2.32739 9.4833 1.33333 10.1778 1.33333 11.0199C1.33333 11.8699 2.34486 12.5695 3.63155 12.6576Z" fill="#F2F2F3"/>
<path d="M11.3333 5.00033C11.3333 5.57916 11.1857 6.12354 10.9262 6.5979C11.0316 6.61755 11.1405 6.62783 11.2519 6.62783C12.1948 6.62783 12.9593 5.89041 12.9593 4.98075C12.9593 4.07109 12.1948 3.33366 11.2519 3.33366C11.1336 3.33366 11.0181 3.34527 10.9066 3.36737C11.1783 3.84996 11.3333 4.40704 11.3333 5.00033Z" fill="#F2F2F3"/>
<path d="M12.3684 12.6576C13.6551 12.5695 14.6666 11.8699 14.6666 11.0199C14.6666 10.1778 13.6725 9.4833 12.4028 9.38481C12.7622 9.82965 12.9999 10.3708 12.9999 11.0003C12.9999 11.6497 12.747 12.205 12.3684 12.6576Z" fill="#F2F2F3"/>
</svg>
