<svg width="41" height="41" viewBox="0 0 41 41" fill="none" xmlns="http://www.w3.org/2000/svg">
<path d="M27.3472 3.83301H13.6529C12.039 3.83301 11.232 3.83301 10.7307 4.32116C10.2293 4.80932 10.2293 5.59499 10.2293 7.16634V8.41634H30.7708V7.16634C30.7708 5.59499 30.7708 4.80932 30.2694 4.32116C29.768 3.83301 28.9611 3.83301 27.3472 3.83301Z" fill="#997E7E"/>
<path d="M3.96781 30.4211L9.85219 10.9163H15.5573L12.4123 36.1786C12.4057 36.2318 12.4025 36.2847 12.4026 36.337C8.91009 35.5679 6.50156 34.4149 5.05755 33.5485C3.9704 32.8962 3.60792 31.614 3.96781 30.4211Z" fill="#997E7E"/>
<path d="M14.8221 36.7755C16.5106 37.0188 18.4002 37.1663 20.5 37.1663C22.5998 37.1663 24.4892 37.0188 26.1777 36.7755C26.1433 36.6846 26.1191 36.5882 26.1066 36.4874L22.9232 10.9163H18.0766L14.8931 36.4874C14.8806 36.5881 14.8564 36.6845 14.8221 36.7755Z" fill="#997E7E"/>
<path d="M25.4425 10.9163L28.5875 36.1786C28.5941 36.2319 28.5973 36.2848 28.5972 36.3371C32.0898 35.568 34.4985 34.4149 35.9425 33.5485C37.0297 32.8962 37.3922 31.614 37.0323 30.4211L31.1479 10.9163H25.4425Z" fill="#997E7E"/>
</svg>
