<svg width="14" height="14" viewBox="0 0 14 14" fill="none" xmlns="http://www.w3.org/2000/svg">
<path d="M5.3393 3.15521C6.07818 1.82973 6.44762 1.16699 6.99996 1.16699C7.5523 1.16699 7.92173 1.82973 8.66061 3.15521L8.85177 3.49813C9.06174 3.87479 9.16672 4.06312 9.33041 4.18738C9.4941 4.31164 9.69796 4.35777 10.1057 4.45002L10.4769 4.53401C11.9117 4.85865 12.6291 5.02097 12.7998 5.56984C12.9705 6.1187 12.4814 6.69062 11.5032 7.83445L11.2502 8.13037C10.9722 8.45541 10.8332 8.61793 10.7707 8.81899C10.7082 9.02005 10.7292 9.23689 10.7712 9.67056L10.8095 10.0654C10.9574 11.5915 11.0313 12.3546 10.5845 12.6938C10.1376 13.033 9.4659 12.7237 8.12248 12.1052L7.77493 11.9451C7.39317 11.7694 7.20229 11.6815 6.99996 11.6815C6.79763 11.6815 6.60675 11.7694 6.22499 11.9451L5.87744 12.1052C4.53402 12.7237 3.86231 13.033 3.41546 12.6938C2.96861 12.3546 3.04256 11.5915 3.19044 10.0654L3.2287 9.67057C3.27072 9.23689 3.29174 9.02005 3.22921 8.81899C3.16669 8.61793 3.02771 8.45541 2.74975 8.13037L2.49668 7.83445C1.51852 6.69062 1.02944 6.1187 1.20012 5.56984C1.3708 5.02097 2.08821 4.85865 3.52302 4.53401L3.89423 4.45002C4.30196 4.35777 4.50582 4.31164 4.66951 4.18738C4.8332 4.06312 4.93818 3.87479 5.14815 3.49813L5.3393 3.15521Z" fill="#FFD426"/>
</svg>
