<svg width="64" height="64" viewBox="0 0 64 64" fill="none" xmlns="http://www.w3.org/2000/svg">
<path d="M0 16C0 7.16344 7.16344 0 16 0H48C56.8366 0 64 7.16344 64 16V48C64 56.8366 56.8366 64 48 64H16C7.16344 64 0 56.8366 0 48V16Z" fill="#1FAD47" fill-opacity="0.12"/>
<g clip-path="url(#clip0_929_16677)">
<path d="M28 52H36C43.5425 52 47.3137 52 49.6569 49.6569C52 47.3138 52 43.5426 52 36.0002C52 28.4578 52 24.6866 49.6569 22.3434C48.9317 21.6183 48.0685 21.1175 46.9992 20.7717C47.0001 21.1108 47.0001 21.4575 47 21.8102L47 26.1264C47 26.1851 47.0006 26.2491 47.0012 26.3177C47.0071 26.9986 47.017 28.1398 46.528 29.1839C46.0389 30.228 45.1559 30.9509 44.629 31.3823C44.5764 31.4254 44.5261 31.4666 44.4813 31.5039L41.4683 34.0147C39.7468 35.4494 38.2483 36.6984 36.9011 37.5648C35.4489 38.4988 33.8782 39.1895 32 39.1895C30.1219 39.1895 28.5511 38.4988 27.099 37.5648C25.7518 36.6984 24.2532 35.4494 22.5317 34.0147L19.5187 31.5039C19.4736 31.4663 19.4241 31.4258 19.371 31.3823C18.8441 30.9509 17.9611 30.228 17.4721 29.1839C16.983 28.1398 16.993 26.9986 16.9989 26.3177C16.9995 26.2491 17 26.1851 17 26.1264L17 21.8102C17 21.4571 17 21.1105 17.0008 20.771C15.9315 21.1168 15.0688 21.6178 14.3431 22.3434C12 24.6866 12 28.4578 12 36.0002C12 43.5426 12 47.3138 14.3431 49.6569C16.6863 52 20.4575 52 28 52Z" fill="#1FAD47"/>
<path fill-rule="evenodd" clip-rule="evenodd" d="M21.4394 29.1992L24.318 31.598C27.9912 34.659 29.8279 36.1895 32.0002 36.1895C34.1725 36.1895 36.0091 34.659 39.6824 31.598L42.5609 29.1992C43.2687 28.6094 43.6225 28.3145 43.8113 27.9114C44.0002 27.5083 44.0002 27.0476 44.0002 26.1264V21.9999C44.0002 21.3586 44.0002 20.761 43.9965 20.2033C43.9731 16.6612 43.801 14.7297 42.5357 13.4645C41.0712 12 38.7142 12 34.0002 12H30.0002C25.2861 12 22.9291 12 21.4646 13.4645C20.1994 14.7297 20.0236 16.6612 20.0002 20.2033C19.9965 20.761 20.0002 21.3586 20.0002 21.9999V26.1264C20.0002 27.0476 20.0002 27.5083 20.189 27.9114C20.3778 28.3145 20.7317 28.6094 21.4394 29.1992ZM26.5 19.9999C26.5 19.1715 27.1716 18.4999 28 18.4999H36C36.8284 18.4999 37.5 19.1715 37.5 19.9999C37.5 20.8283 36.8284 21.4999 36 21.4999H28C27.1716 21.4999 26.5 20.8283 26.5 19.9999ZM28.5 25.9999C28.5 25.1714 29.1716 24.4999 30 24.4999H34C34.8284 24.4999 35.5 25.1714 35.5 25.9999C35.5 26.8283 34.8284 27.4998 34 27.4998H30C29.1716 27.4998 28.5 26.8283 28.5 25.9999Z" fill="#1FAD47"/>
</g>
<defs>
<clipPath id="clip0_929_16677">
<rect width="40" height="40" fill="white" transform="translate(12 12)"/>
</clipPath>
</defs>
</svg>
