<svg width="20" height="20" viewBox="0 0 20 20" fill="none" xmlns="http://www.w3.org/2000/svg">
<path fill-rule="evenodd" clip-rule="evenodd" d="M8.79046 17.9398L8.99884 17.5877C9.3328 17.0235 9.49978 16.7414 9.76578 16.584C10.0318 16.4267 10.3787 16.4156 11.0727 16.3934C11.7233 16.3726 12.1607 16.3158 12.5346 16.1609C13.3218 15.8349 13.9473 15.2094 14.2733 14.4221C14.5179 13.8317 14.5179 13.0832 14.5179 11.5862V10.9436C14.5179 8.84021 14.5179 7.7885 14.0445 7.01591C13.7795 6.5836 13.4161 6.22013 12.9838 5.95521C12.2112 5.48176 11.1595 5.48176 9.05606 5.48176H7.12835C5.02494 5.48176 3.97324 5.48176 3.20065 5.95521C2.76834 6.22013 2.40487 6.5836 2.13995 7.01591C1.6665 7.7885 1.6665 8.84021 1.6665 10.9436V11.5862C1.6665 13.0832 1.6665 13.8317 1.91107 14.4221C2.23715 15.2094 2.86261 15.8349 3.64985 16.1609C4.02376 16.3158 4.46107 16.3726 5.11173 16.3934C5.80566 16.4156 6.15262 16.4267 6.41861 16.584C6.68461 16.7414 6.85159 17.0235 7.18555 17.5877L7.39393 17.9398C7.7044 18.4643 8.47999 18.4643 8.79046 17.9398ZM10.9035 11.9075C11.3471 11.9075 11.7067 11.5479 11.7067 11.1043C11.7067 10.6606 11.3471 10.301 10.9035 10.301C10.4599 10.301 10.1002 10.6606 10.1002 11.1043C10.1002 11.5479 10.4599 11.9075 10.9035 11.9075ZM8.89542 11.1043C8.89542 11.5479 8.53581 11.9075 8.09221 11.9075C7.64861 11.9075 7.28899 11.5479 7.28899 11.1043C7.28899 10.6606 7.64861 10.301 8.09221 10.301C8.53581 10.301 8.89542 10.6606 8.89542 11.1043ZM5.28096 11.9075C5.72456 11.9075 6.08418 11.5479 6.08418 11.1043C6.08418 10.6606 5.72456 10.301 5.28096 10.301C4.83736 10.301 4.47775 10.6606 4.47775 11.1043C4.47775 11.5479 4.83736 11.9075 5.28096 11.9075Z" fill="#808080"/>
<path d="M12.6412 1.66666C13.601 1.66665 14.3642 1.66665 14.9763 1.72484C15.6039 1.78452 16.1346 1.90961 16.6073 2.19929C17.0936 2.49732 17.5025 2.90623 17.8005 3.39257C18.0902 3.86529 18.2153 4.39594 18.275 5.02356C18.3332 5.63565 18.3332 6.39891 18.3332 7.35865V8.01415C18.3332 8.69721 18.3332 9.2405 18.3031 9.68106C18.2724 10.1318 18.2081 10.5188 18.058 10.8812C17.6912 11.7669 16.9876 12.4705 16.1019 12.8373C16.0798 12.8465 16.0575 12.8554 16.0351 12.8639C15.9282 12.9048 15.8366 12.9398 15.7562 12.9659C15.7679 12.5752 15.7679 12.1302 15.7679 11.6281V10.8845C15.7679 9.88314 15.768 9.04433 15.7031 8.36239C15.6352 7.64847 15.4876 6.9785 15.1103 6.36279C14.7423 5.76229 14.2374 5.2574 13.6369 4.88941C13.0212 4.5121 12.3512 4.36444 11.6373 4.29655C10.9553 4.23171 10.1165 4.23174 9.11519 4.23176H7.06922C6.38915 4.23174 5.78405 4.23173 5.25214 4.25203C5.27692 4.16616 5.31087 4.06773 5.35072 3.95219C5.4185 3.75568 5.50416 3.56983 5.61279 3.39257C5.91082 2.90623 6.31972 2.49732 6.80607 2.19929C7.27878 1.90961 7.80943 1.78452 8.43705 1.72484C9.04915 1.66665 9.81238 1.66665 10.7721 1.66666H12.6412Z" fill="#808080"/>
</svg>
