<svg width="20" height="20" viewBox="0 0 20 20" fill="none" xmlns="http://www.w3.org/2000/svg">
<path fill-rule="evenodd" clip-rule="evenodd" d="M18.3333 10.0003C18.3333 14.6027 14.6023 18.3337 9.99996 18.3337C5.39759 18.3337 1.66663 14.6027 1.66663 10.0003C1.66663 5.39795 5.39759 1.66699 9.99996 1.66699C14.6023 1.66699 18.3333 5.39795 18.3333 10.0003ZM9.99996 14.792C10.3451 14.792 10.625 14.5122 10.625 14.167V9.16699C10.625 8.82181 10.3451 8.54199 9.99996 8.54199C9.65478 8.54199 9.37496 8.82181 9.37496 9.16699V14.167C9.37496 14.5122 9.65478 14.792 9.99996 14.792ZM9.99996 5.83366C10.4602 5.83366 10.8333 6.20676 10.8333 6.66699C10.8333 7.12723 10.4602 7.50033 9.99996 7.50033C9.53972 7.50033 9.16663 7.12723 9.16663 6.66699C9.16663 6.20676 9.53972 5.83366 9.99996 5.83366Z" fill="#F2F2F3"/>
</svg>
