<svg width="25" height="24" viewBox="0 0 25 24" fill="none" xmlns="http://www.w3.org/2000/svg">
<path d="M19.0116 9.87236C19.0116 10.5911 18.3869 11.1737 17.6163 11.1737C16.8457 11.1737 16.2209 10.5911 16.2209 9.87236C16.2209 9.15365 16.8457 8.57102 17.6163 8.57102C18.3869 8.57102 19.0116 9.15365 19.0116 9.87236Z" fill="#F2F2F3"/>
<path fill-rule="evenodd" clip-rule="evenodd" d="M18.5363 5.45052C17.4766 5.31764 16.1225 5.31765 14.4129 5.31767H10.5871C8.87751 5.31765 7.52343 5.31764 6.4637 5.45052C5.37308 5.58727 4.49033 5.8754 3.79418 6.52466C3.09803 7.17391 2.78908 7.99718 2.64245 9.01433C2.49997 10.0027 2.49999 11.2655 2.5 12.8599V12.9578C2.49999 14.5521 2.49997 15.815 2.64245 16.8033C2.78908 17.8205 3.09803 18.6438 3.79418 19.293C4.49033 19.9423 5.37307 20.2304 6.4637 20.3671C7.52344 20.5 8.87751 20.5 10.5871 20.5H14.4129C16.1225 20.5 17.4766 20.5 18.5363 20.3671C19.6269 20.2304 20.5097 19.9423 21.2058 19.293C21.902 18.6438 22.2109 17.8205 22.3575 16.8033C22.5 15.815 22.5 14.5521 22.5 12.9578V12.8599C22.5 11.2655 22.5 10.0027 22.3575 9.01433C22.2109 7.99718 21.902 7.17391 21.2058 6.52466C20.5097 5.8754 19.6269 5.58727 18.5363 5.45052ZM6.64963 6.74026C5.71373 6.85761 5.17452 7.07768 4.78084 7.44484C4.38716 7.812 4.15119 8.31488 4.02536 9.18773C3.92443 9.88783 3.90184 10.7629 3.8968 11.9074L4.36764 11.5232C5.49175 10.6059 7.18596 10.6585 8.24215 11.6435L12.2326 15.3651C12.6321 15.7377 13.2611 15.7886 13.7234 15.4855L14.0008 15.3037C15.3313 14.4317 17.1314 14.5327 18.3402 15.5473L20.7479 17.5682C20.8463 17.3113 20.9206 17.0047 20.9746 16.6299C21.1032 15.7384 21.1047 14.5631 21.1047 12.9088C21.1047 11.2545 21.1032 10.0793 20.9746 9.18773C20.8488 8.31488 20.6128 7.812 20.2192 7.44484C19.8255 7.07768 19.2863 6.85761 18.3504 6.74026C17.3944 6.62039 16.1343 6.61901 14.3605 6.61901H10.6395C8.86575 6.61901 7.60559 6.62039 6.64963 6.74026Z" fill="#F2F2F3"/>
<path d="M17.5863 2.6074C16.7265 2.49997 15.6318 2.49998 14.2672 2.5H11.1775C9.81284 2.49998 8.71815 2.49997 7.85834 2.6074C6.96796 2.71866 6.22561 2.9557 5.63682 3.5029C5.29725 3.81849 5.06856 4.18163 4.91279 4.59121C5.41699 4.36743 5.98704 4.23555 6.62705 4.15488C7.71143 4.01821 9.097 4.01822 10.8463 4.01823H14.7612C16.5105 4.01822 17.896 4.01821 18.9804 4.15488C19.5394 4.22534 20.045 4.33486 20.5 4.51056C20.3454 4.13381 20.125 3.79762 19.8078 3.5029C19.219 2.9557 18.4767 2.71866 17.5863 2.6074Z" fill="#F2F2F3"/>
</svg>
