<svg width="15" height="14" viewBox="0 0 15 14" fill="none" xmlns="http://www.w3.org/2000/svg">
<path fill-rule="evenodd" clip-rule="evenodd" d="M9.90633 6.99967C9.90633 6.75805 9.71046 6.56217 9.46883 6.56217L3.06817 6.56217L4.21189 5.58185C4.39534 5.4246 4.41659 5.14841 4.25934 4.96495C4.10209 4.7815 3.8259 4.76025 3.64244 4.9175L1.60078 6.6675C1.50381 6.75062 1.448 6.87196 1.448 6.99967C1.448 7.12739 1.50381 7.24873 1.60078 7.33185L3.64244 9.08185C3.8259 9.2391 4.10209 9.21785 4.25934 9.0344C4.41659 8.85094 4.39534 8.57475 4.21189 8.4175L3.06817 7.43717L9.46883 7.43717C9.71046 7.43717 9.90633 7.2413 9.90633 6.99967Z" fill="#F2F2F3"/>
<path d="M5.96883 4.66634C5.96883 5.07595 5.96883 5.28076 6.06713 5.42788C6.10969 5.49159 6.16439 5.54629 6.2281 5.58885C6.37522 5.68715 6.58003 5.68715 6.98964 5.68715L9.46883 5.68715C10.1937 5.68715 10.7813 6.27478 10.7813 6.99965C10.7813 7.72452 10.1937 8.31215 9.46883 8.31215L6.98969 8.31215C6.58003 8.31215 6.3752 8.31215 6.22807 8.41047C6.16438 8.45302 6.10971 8.5077 6.06715 8.57139C5.96883 8.71852 5.96883 8.92335 5.96883 9.33301C5.96883 10.9829 5.96883 11.8079 6.48139 12.3204C6.99396 12.833 7.81879 12.833 9.4687 12.833L10.052 12.833C11.702 12.833 12.5269 12.833 13.0395 12.3204C13.552 11.8079 13.552 10.9829 13.552 9.33301L13.552 4.66634C13.552 3.01643 13.552 2.19147 13.0395 1.6789C12.5269 1.16634 11.7019 1.16634 10.052 1.16634L9.4687 1.16634C7.81879 1.16634 6.99396 1.16634 6.48139 1.6789C5.96883 2.19147 5.96883 3.01643 5.96883 4.66634Z" fill="#F2F2F3"/>
</svg>
