<svg width="20" height="20" viewBox="0 0 20 20" fill="none" xmlns="http://www.w3.org/2000/svg">
<path d="M6.95983 16.8685C7.66073 17.7595 8.76182 18.3337 10 18.3337C11.2382 18.3337 12.3393 17.7595 13.0402 16.8685C11.022 17.142 8.97798 17.142 6.95983 16.8685Z" fill="#F2F2F3"/>
<path fill-rule="evenodd" clip-rule="evenodd" d="M15.6243 8.08708V7.50032C15.6243 4.27866 13.1062 1.66699 10 1.66699C6.8938 1.66699 4.37573 4.27866 4.37573 7.50032V8.08708C4.37573 8.79123 4.17476 9.47964 3.79816 10.0655L2.8753 11.5013C2.03235 12.8127 2.67587 14.5953 4.14197 15.01C7.97728 16.0948 12.0227 16.0948 15.858 15.01C17.3241 14.5953 17.9676 12.8127 17.1247 11.5013L16.2018 10.0655C15.8252 9.47964 15.6243 8.79123 15.6243 8.08708ZM10 4.37533C10.3452 4.37533 10.625 4.65515 10.625 5.00033V8.33366C10.625 8.67884 10.3452 8.95866 10 8.95866C9.65482 8.95866 9.375 8.67884 9.375 8.33366V5.00033C9.375 4.65515 9.65482 4.37533 10 4.37533Z" fill="#F2F2F3"/>
</svg>
